<?xml version="1.0" encoding="iso-8859-1"?>
<!-- Uploaded to: SVG Repo, www.svgrepo.com, Generator: SVG Repo Mixer Tools -->
<svg height="800px" width="800px" version="1.1" id="Layer_1" xmlns="http://www.w3.org/2000/svg" xmlns:xlink="http://www.w3.org/1999/xlink" 
	 viewBox="0 0 512 512" xml:space="preserve">
<circle style="fill:#273B7A;" cx="256" cy="256" r="256"/>
<path style="fill:#121149;" d="M274.008,511.36c122.542-8.518,221.322-103.265,236.077-223.985L399.946,177.238l-31.339,5.425
	l-14.774-14.774L207.444,288.468l55.76,51.614l-144.382,17.036L274.008,511.36z"/>
<path style="fill:#EAA22F;" d="M379.906,170.198c-10.74,0-20.24,5.32-26.072,13.443v-15.753H147.332v68.834
	c0,57.023,46.227,103.25,103.25,103.25l0,0c57.023,0,103.25-46.227,103.25-103.25v-15.753c5.832,8.123,15.332,13.441,26.072,13.441
	c17.704,0,32.108-14.402,32.108-32.106S397.608,170.198,379.906,170.198z M379.906,222.344c-11.048,0-20.039-8.99-20.039-20.039
	c0-11.05,8.99-20.04,20.039-20.04c11.05,0,20.04,8.99,20.04,20.04C399.946,213.354,390.956,222.344,379.906,222.344z"/>
<path style="fill:#E09112;" d="M379.906,170.198c-10.74,0-20.24,5.32-26.072,13.443v-15.753h-99.269v171.984
	c55.175-2.095,99.269-47.461,99.269-103.15v-15.753c5.832,8.123,15.332,13.441,26.072,13.441c17.705,0,32.108-14.402,32.108-32.106
	S397.608,170.198,379.906,170.198z M379.906,222.344c-11.048,0-20.039-8.99-20.039-20.039c0-11.05,8.99-20.04,20.039-20.04
	c11.05,0,20.04,8.99,20.04,20.04C399.946,213.354,390.956,222.344,379.906,222.344z"/>
<path style="fill:#FFC61B;" d="M130.124,361.351h240.918c9.504,0,17.208-7.704,17.208-17.208l0,0
	c0-9.504-7.704-17.208-17.208-17.208H130.124c-9.504,0-17.208,7.704-17.208,17.208l0,0
	C112.916,353.647,120.62,361.351,130.124,361.351z"/>
<path style="fill:#EAA22F;" d="M371.041,326.935H254.564v34.416h116.477c9.504,0,17.208-7.704,17.208-17.208
	C388.249,334.639,380.545,326.935,371.041,326.935z"/>
</svg>