<?xml version="1.0" encoding="iso-8859-1"?>
<!-- Uploaded to: SVG Repo, www.svgrepo.com, Generator: SVG Repo Mixer Tools -->
<svg fill="#000000" height="800px" width="800px" version="1.1" id="Layer_1" xmlns="http://www.w3.org/2000/svg" xmlns:xlink="http://www.w3.org/1999/xlink" 
	 viewBox="0 0 491.522 491.522" xml:space="preserve">
<g>
	<g>
		<path d="M81.92,348.161h81.92c0,0,0.001,0,0.001,0c0,0,0.001,0,0.001,0h240.312c48.257,0,87.368-39.111,87.368-87.368V81.921
			c0-11.311-9.169-20.48-20.48-20.48H96.681L80.869,14.005C78.081,5.642,70.255,0.001,61.44,0.001H20.48
			C9.169,0.001,0,9.17,0,20.481s9.169,20.48,20.48,20.48h26.199l56.772,170.316c0.004,0.013,0.01,0.024,0.014,0.037l31.962,95.887
			H81.92c-45.103,0-81.92,36.817-81.92,81.92s36.817,81.92,81.92,81.92h87.409c7.081,12.242,20.305,20.48,35.471,20.48
			c15.166,0,28.39-8.238,35.471-20.48h174.818c7.081,12.242,20.305,20.48,35.471,20.48c22.63,0,40.96-18.33,40.96-40.96
			s-18.33-40.96-40.96-40.96c-15.166,0-28.39,8.238-35.471,20.48H240.271c-7.081-12.242-20.305-20.48-35.471-20.48
			c-15.166,0-28.39,8.238-35.471,20.48H81.92c-22.481,0-40.96-18.479-40.96-40.96S59.439,348.161,81.92,348.161z M327.68,184.321
			v40.96h-81.92v-40.96H327.68z M245.76,143.361v-40.96h81.92v40.96H245.76z M368.64,225.281v-40.96h81.922v40.96H368.64z
			 M327.68,266.241v40.96h-81.92v-40.96H327.68z M204.8,225.281h-53.503l-13.653-40.96H204.8V225.281z M204.8,266.241v40.96h-26.197
			l-13.653-40.96H204.8z M404.154,307.201H368.64v-40.96h81.593C447.536,289.306,427.945,307.201,404.154,307.201z M450.562,143.361
			H368.64v-40.96h81.922V143.361z M204.8,102.401v40.96h-80.81l-13.653-40.96H204.8z"/>
	</g>
</g>
</svg>